<mxfile host="app.diagrams.net" modified="2021-06-22T23:49:18.590Z" agent="5.0 (Windows NT 10.0; Win64; x64) AppleWebKit/537.36 (KHTML, like Gecko) Chrome/91.0.4472.114 Safari/537.36 Edg/91.0.864.54" etag="mlHvPOCW3tPCiI5GQyPT" version="14.8.0" type="github">
  <diagram id="8teEoMucjJ_-UwWD8feK" name="Page-1">
    <mxGraphModel dx="1038" dy="547" grid="0" gridSize="10" guides="1" tooltips="1" connect="1" arrows="1" fold="1" page="1" pageScale="1" pageWidth="827" pageHeight="1169" math="0" shadow="0">
      <root>
        <mxCell id="0" />
        <mxCell id="1" parent="0" />
        <mxCell id="E05ybnP7Cjv6Loe-njaW-70" style="edgeStyle=orthogonalEdgeStyle;rounded=0;orthogonalLoop=1;jettySize=auto;html=1;entryX=0.5;entryY=0;entryDx=0;entryDy=0;" edge="1" parent="1" source="E05ybnP7Cjv6Loe-njaW-68" target="E05ybnP7Cjv6Loe-njaW-69">
          <mxGeometry relative="1" as="geometry" />
        </mxCell>
        <mxCell id="E05ybnP7Cjv6Loe-njaW-68" value="&lt;font style=&quot;font-size: 18px&quot;&gt;程序开始&lt;/font&gt;" style="rounded=0;whiteSpace=wrap;html=1;" vertex="1" parent="1">
          <mxGeometry x="80" y="30" width="120" height="60" as="geometry" />
        </mxCell>
        <mxCell id="E05ybnP7Cjv6Loe-njaW-72" style="edgeStyle=orthogonalEdgeStyle;rounded=0;orthogonalLoop=1;jettySize=auto;html=1;exitX=0.5;exitY=1;exitDx=0;exitDy=0;entryX=0.5;entryY=0;entryDx=0;entryDy=0;" edge="1" parent="1" source="E05ybnP7Cjv6Loe-njaW-69" target="E05ybnP7Cjv6Loe-njaW-71">
          <mxGeometry relative="1" as="geometry" />
        </mxCell>
        <mxCell id="E05ybnP7Cjv6Loe-njaW-69" value="生成密钥&lt;br&gt;随机选择素数p、q&lt;br&gt;计算n、e、d&lt;br&gt;输出密钥" style="rounded=0;whiteSpace=wrap;html=1;" vertex="1" parent="1">
          <mxGeometry x="75" y="120" width="130" height="70" as="geometry" />
        </mxCell>
        <mxCell id="E05ybnP7Cjv6Loe-njaW-74" style="edgeStyle=orthogonalEdgeStyle;rounded=0;orthogonalLoop=1;jettySize=auto;html=1;exitX=0.5;exitY=1;exitDx=0;exitDy=0;entryX=0.5;entryY=0;entryDx=0;entryDy=0;" edge="1" parent="1" source="E05ybnP7Cjv6Loe-njaW-71" target="E05ybnP7Cjv6Loe-njaW-73">
          <mxGeometry relative="1" as="geometry" />
        </mxCell>
        <mxCell id="E05ybnP7Cjv6Loe-njaW-71" value="&lt;font style=&quot;font-size: 14px&quot;&gt;用户选择加/解密mode&lt;br&gt;（1.加密 2.解密）&lt;/font&gt;" style="rounded=0;whiteSpace=wrap;html=1;" vertex="1" parent="1">
          <mxGeometry x="80" y="220" width="120" height="60" as="geometry" />
        </mxCell>
        <mxCell id="E05ybnP7Cjv6Loe-njaW-76" style="edgeStyle=orthogonalEdgeStyle;rounded=0;orthogonalLoop=1;jettySize=auto;html=1;exitX=0.5;exitY=1;exitDx=0;exitDy=0;entryX=0.5;entryY=0;entryDx=0;entryDy=0;" edge="1" parent="1" source="E05ybnP7Cjv6Loe-njaW-73" target="E05ybnP7Cjv6Loe-njaW-75">
          <mxGeometry relative="1" as="geometry" />
        </mxCell>
        <mxCell id="E05ybnP7Cjv6Loe-njaW-79" style="edgeStyle=orthogonalEdgeStyle;rounded=0;orthogonalLoop=1;jettySize=auto;html=1;entryX=0;entryY=0.5;entryDx=0;entryDy=0;" edge="1" parent="1" source="E05ybnP7Cjv6Loe-njaW-73" target="E05ybnP7Cjv6Loe-njaW-78">
          <mxGeometry relative="1" as="geometry" />
        </mxCell>
        <mxCell id="E05ybnP7Cjv6Loe-njaW-73" value="&lt;font style=&quot;font-size: 14px&quot;&gt;mode=1？&lt;/font&gt;" style="rhombus;whiteSpace=wrap;html=1;" vertex="1" parent="1">
          <mxGeometry x="70" y="320" width="140" height="80" as="geometry" />
        </mxCell>
        <mxCell id="E05ybnP7Cjv6Loe-njaW-84" style="edgeStyle=orthogonalEdgeStyle;rounded=0;orthogonalLoop=1;jettySize=auto;html=1;exitX=0;exitY=0.5;exitDx=0;exitDy=0;entryX=0;entryY=0.5;entryDx=0;entryDy=0;" edge="1" parent="1" source="E05ybnP7Cjv6Loe-njaW-75" target="E05ybnP7Cjv6Loe-njaW-71">
          <mxGeometry relative="1" as="geometry" />
        </mxCell>
        <mxCell id="E05ybnP7Cjv6Loe-njaW-75" value="&lt;font style=&quot;font-size: 14px&quot;&gt;mode=2？&lt;/font&gt;" style="rhombus;whiteSpace=wrap;html=1;" vertex="1" parent="1">
          <mxGeometry x="70" y="430" width="140" height="80" as="geometry" />
        </mxCell>
        <mxCell id="E05ybnP7Cjv6Loe-njaW-77" value="N" style="text;html=1;strokeColor=none;fillColor=none;align=center;verticalAlign=middle;whiteSpace=wrap;rounded=0;" vertex="1" parent="1">
          <mxGeometry x="130" y="400" width="40" height="20" as="geometry" />
        </mxCell>
        <mxCell id="E05ybnP7Cjv6Loe-njaW-87" style="edgeStyle=orthogonalEdgeStyle;rounded=0;orthogonalLoop=1;jettySize=auto;html=1;exitX=1;exitY=0.5;exitDx=0;exitDy=0;entryX=0;entryY=0.5;entryDx=0;entryDy=0;" edge="1" parent="1" source="E05ybnP7Cjv6Loe-njaW-78" target="E05ybnP7Cjv6Loe-njaW-86">
          <mxGeometry relative="1" as="geometry" />
        </mxCell>
        <mxCell id="E05ybnP7Cjv6Loe-njaW-78" value="&lt;font style=&quot;font-size: 14px&quot;&gt;用户输入明文M&lt;/font&gt;" style="rounded=0;whiteSpace=wrap;html=1;" vertex="1" parent="1">
          <mxGeometry x="270" y="330" width="120" height="60" as="geometry" />
        </mxCell>
        <mxCell id="E05ybnP7Cjv6Loe-njaW-80" value="Y" style="text;html=1;strokeColor=none;fillColor=none;align=center;verticalAlign=middle;whiteSpace=wrap;rounded=0;" vertex="1" parent="1">
          <mxGeometry x="210" y="340" width="40" height="20" as="geometry" />
        </mxCell>
        <mxCell id="E05ybnP7Cjv6Loe-njaW-81" style="edgeStyle=orthogonalEdgeStyle;rounded=0;orthogonalLoop=1;jettySize=auto;html=1;entryX=0;entryY=0.5;entryDx=0;entryDy=0;" edge="1" target="E05ybnP7Cjv6Loe-njaW-82" parent="1">
          <mxGeometry relative="1" as="geometry">
            <mxPoint x="210" y="470" as="sourcePoint" />
          </mxGeometry>
        </mxCell>
        <mxCell id="E05ybnP7Cjv6Loe-njaW-89" style="edgeStyle=orthogonalEdgeStyle;rounded=0;orthogonalLoop=1;jettySize=auto;html=1;exitX=1;exitY=0.5;exitDx=0;exitDy=0;entryX=0;entryY=0.5;entryDx=0;entryDy=0;" edge="1" parent="1" source="E05ybnP7Cjv6Loe-njaW-82" target="E05ybnP7Cjv6Loe-njaW-88">
          <mxGeometry relative="1" as="geometry" />
        </mxCell>
        <mxCell id="E05ybnP7Cjv6Loe-njaW-82" value="&lt;font style=&quot;font-size: 14px&quot;&gt;用户输入密文C和&lt;br&gt;私钥n、d&lt;/font&gt;" style="rounded=0;whiteSpace=wrap;html=1;" vertex="1" parent="1">
          <mxGeometry x="270" y="440" width="120" height="60" as="geometry" />
        </mxCell>
        <mxCell id="E05ybnP7Cjv6Loe-njaW-83" value="Y" style="text;html=1;strokeColor=none;fillColor=none;align=center;verticalAlign=middle;whiteSpace=wrap;rounded=0;" vertex="1" parent="1">
          <mxGeometry x="210" y="450" width="40" height="20" as="geometry" />
        </mxCell>
        <mxCell id="E05ybnP7Cjv6Loe-njaW-85" value="N" style="text;html=1;strokeColor=none;fillColor=none;align=center;verticalAlign=middle;whiteSpace=wrap;rounded=0;" vertex="1" parent="1">
          <mxGeometry x="40" y="450" width="40" height="20" as="geometry" />
        </mxCell>
        <mxCell id="E05ybnP7Cjv6Loe-njaW-92" style="edgeStyle=orthogonalEdgeStyle;rounded=0;orthogonalLoop=1;jettySize=auto;html=1;exitX=1;exitY=0.5;exitDx=0;exitDy=0;entryX=0;entryY=0.5;entryDx=0;entryDy=0;" edge="1" parent="1" source="E05ybnP7Cjv6Loe-njaW-86" target="E05ybnP7Cjv6Loe-njaW-90">
          <mxGeometry relative="1" as="geometry" />
        </mxCell>
        <mxCell id="E05ybnP7Cjv6Loe-njaW-86" value="&lt;font style=&quot;font-size: 14px&quot;&gt;加密C=M&lt;sup&gt;e&amp;nbsp;&lt;/sup&gt;mod n&lt;/font&gt;" style="rounded=0;whiteSpace=wrap;html=1;" vertex="1" parent="1">
          <mxGeometry x="440" y="330" width="120" height="60" as="geometry" />
        </mxCell>
        <mxCell id="E05ybnP7Cjv6Loe-njaW-93" style="edgeStyle=orthogonalEdgeStyle;rounded=0;orthogonalLoop=1;jettySize=auto;html=1;exitX=1;exitY=0.5;exitDx=0;exitDy=0;entryX=0;entryY=0.5;entryDx=0;entryDy=0;" edge="1" parent="1" source="E05ybnP7Cjv6Loe-njaW-88" target="E05ybnP7Cjv6Loe-njaW-91">
          <mxGeometry relative="1" as="geometry" />
        </mxCell>
        <mxCell id="E05ybnP7Cjv6Loe-njaW-88" value="&lt;font style=&quot;font-size: 14px&quot;&gt;解密M=C&lt;sup&gt;d&amp;nbsp;&lt;/sup&gt;mod n&lt;/font&gt;" style="rounded=0;whiteSpace=wrap;html=1;" vertex="1" parent="1">
          <mxGeometry x="440" y="440" width="120" height="60" as="geometry" />
        </mxCell>
        <mxCell id="E05ybnP7Cjv6Loe-njaW-94" style="edgeStyle=orthogonalEdgeStyle;rounded=0;orthogonalLoop=1;jettySize=auto;html=1;exitX=0.5;exitY=0;exitDx=0;exitDy=0;entryX=1;entryY=0.5;entryDx=0;entryDy=0;" edge="1" parent="1" source="E05ybnP7Cjv6Loe-njaW-90" target="E05ybnP7Cjv6Loe-njaW-71">
          <mxGeometry relative="1" as="geometry" />
        </mxCell>
        <mxCell id="E05ybnP7Cjv6Loe-njaW-90" value="&lt;font size=&quot;3&quot;&gt;输出密文C&lt;/font&gt;" style="rounded=0;whiteSpace=wrap;html=1;" vertex="1" parent="1">
          <mxGeometry x="600" y="330" width="120" height="60" as="geometry" />
        </mxCell>
        <mxCell id="E05ybnP7Cjv6Loe-njaW-91" value="&lt;font size=&quot;3&quot;&gt;输出明文M&lt;/font&gt;" style="rounded=0;whiteSpace=wrap;html=1;" vertex="1" parent="1">
          <mxGeometry x="600" y="440" width="120" height="60" as="geometry" />
        </mxCell>
        <mxCell id="E05ybnP7Cjv6Loe-njaW-96" value="" style="endArrow=none;html=1;exitX=1;exitY=0.5;exitDx=0;exitDy=0;" edge="1" parent="1" source="E05ybnP7Cjv6Loe-njaW-91">
          <mxGeometry width="50" height="50" relative="1" as="geometry">
            <mxPoint x="730" y="460" as="sourcePoint" />
            <mxPoint x="780" y="470" as="targetPoint" />
          </mxGeometry>
        </mxCell>
        <mxCell id="E05ybnP7Cjv6Loe-njaW-97" value="" style="endArrow=none;html=1;" edge="1" parent="1">
          <mxGeometry width="50" height="50" relative="1" as="geometry">
            <mxPoint x="780" y="470" as="sourcePoint" />
            <mxPoint x="780" y="250" as="targetPoint" />
          </mxGeometry>
        </mxCell>
        <mxCell id="E05ybnP7Cjv6Loe-njaW-98" value="" style="endArrow=none;html=1;" edge="1" parent="1">
          <mxGeometry width="50" height="50" relative="1" as="geometry">
            <mxPoint x="780" y="250" as="sourcePoint" />
            <mxPoint x="660" y="250" as="targetPoint" />
          </mxGeometry>
        </mxCell>
      </root>
    </mxGraphModel>
  </diagram>
</mxfile>
